<svg width="14" height="16" viewBox="0 0 14 16" fill="none" xmlns="http://www.w3.org/2000/svg">
<path d="M7.34094 0C10.9309 0 13.8409 2.87431 13.8409 6.42028C13.8409 9.13326 11.9109 12.0899 8.10094 15.3218C7.88909 15.5015 7.61898 15.6002 7.3397 15.6C7.06041 15.5998 6.79048 15.5006 6.57894 15.3204L6.32694 15.1045C2.68561 11.9569 0.840942 9.07268 0.840942 6.42028C0.840942 2.87431 3.75094 0 7.34094 0ZM7.34094 3.95094C6.6779 3.95094 6.04202 4.2111 5.57318 4.6742C5.10433 5.13729 4.84094 5.76537 4.84094 6.42028C4.84094 7.07519 5.10433 7.70328 5.57318 8.16637C6.04202 8.62946 6.6779 8.88962 7.34094 8.88962C8.00398 8.88962 8.63987 8.62946 9.10871 8.16637C9.57755 7.70328 9.84094 7.07519 9.84094 6.42028C9.84094 5.76537 9.57755 5.13729 9.10871 4.6742C8.63987 4.2111 8.00398 3.95094 7.34094 3.95094Z" fill="white"/>
</svg>
