<svg width="15" height="15" viewBox="0 0 15 15" fill="none" xmlns="http://www.w3.org/2000/svg">
<path d="M13.421 7.10461H15C15 3.05453 11.9424 0 7.8868 0V1.57898C11.0937 1.57898 13.421 3.90244 13.421 7.10461Z" fill="white"/>
<path d="M7.89501 4.73622C9.55529 4.73622 10.2635 5.4444 10.2635 7.1047H11.8424C11.8424 4.55859 10.4411 3.15724 7.89501 3.15724V4.73622ZM10.5966 9.03343C10.4449 8.89555 10.2456 8.82201 10.0407 8.82835C9.83576 8.83468 9.64134 8.92039 9.49845 9.06738L7.60922 11.0103C7.15448 10.9235 6.24027 10.6385 5.29921 9.69977C4.35815 8.7579 4.07315 7.8413 3.98867 7.38971L5.93 5.49966C6.07717 5.35687 6.163 5.16241 6.16934 4.95745C6.17568 4.75248 6.10202 4.55309 5.96395 4.40148L3.04682 1.19377C2.9087 1.04168 2.71672 0.949424 2.51168 0.9366C2.30663 0.923775 2.10466 0.991389 1.94866 1.12508L0.235488 2.59433C0.0989953 2.73132 0.0175276 2.91364 0.00653844 3.10671C-0.00530375 3.30408 -0.231095 7.97946 3.39419 11.6064C6.55685 14.7683 10.5185 14.9996 11.6095 14.9996C11.769 14.9996 11.8669 14.9949 11.8929 14.9933C12.086 14.9825 12.2682 14.9007 12.4045 14.7636L13.8729 13.0496C14.0067 12.8937 14.0745 12.6918 14.0618 12.4867C14.0491 12.2817 13.957 12.0896 13.8051 11.9514L10.5966 9.03343V9.03343Z" fill="white"/>
</svg>
