<svg width="15" height="12" viewBox="0 0 15 12" fill="none" xmlns="http://www.w3.org/2000/svg">
<path d="M15 3.10178V9.625C15 10.7528 14.0724 11.6667 12.9276 11.6667H2.07237C1.52274 11.6667 0.995627 11.4516 0.606983 11.0687C0.218338 10.6858 0 10.1665 0 9.625V3.10178L7.26237 7.03733C7.4104 7.11744 7.59 7.11744 7.73763 7.03733L15 3.10139V3.10178ZM12.9276 8.78044e-09C13.4686 4.95271e-05 13.9881 0.208504 14.3752 0.580835C14.7623 0.953166 14.9862 1.45985 14.9992 1.99267L7.5 6.05656L0.000789416 1.99228L0.00157902 1.95728C0.0236853 1.43082 0.251529 0.933171 0.637464 0.568391C1.0234 0.203611 1.53754 -4.88261e-05 2.07237 8.78044e-09H12.9276Z" fill="white"/>
</svg>
