<svg width="26" height="21" viewBox="0 0 26 21" fill="none" xmlns="http://www.w3.org/2000/svg">
<path d="M25.8424 2.47059C24.8912 2.90294 23.8659 3.18706 22.8035 3.32294C23.8906 2.66824 24.7306 1.63059 25.1259 0.382941C24.1006 1.00059 22.9641 1.43294 21.7659 1.68C20.79 0.617647 19.4188 0 17.8624 0C14.9594 0 12.5876 2.37176 12.5876 5.29941C12.5876 5.71941 12.6371 6.12706 12.7235 6.51C8.32588 6.28765 4.41 4.17529 1.80353 0.975882C1.34647 1.75412 1.08706 2.66824 1.08706 3.63176C1.08706 5.47235 2.01353 7.10294 3.44647 8.02941C2.56941 8.02941 1.75412 7.78235 1.03765 7.41176V7.44882C1.03765 10.0182 2.86588 12.1676 5.28706 12.6494C4.50972 12.8621 3.69365 12.8917 2.90294 12.7359C3.23846 13.7889 3.89555 14.7104 4.78184 15.3707C5.66814 16.031 6.73908 16.3969 7.84412 16.4171C5.97096 17.9 3.64905 18.7015 1.26 18.69C0.84 18.69 0.42 18.6653 0 18.6159C2.34706 20.1229 5.13882 21 8.12824 21C17.8624 21 23.2112 12.9212 23.2112 5.91706C23.2112 5.68235 23.2112 5.46 23.1988 5.22529C24.2365 4.48412 25.1259 3.54529 25.8424 2.47059Z" fill="white"/>
</svg>
