<svg width="212" height="212" viewBox="0 0 212 212" fill="none" xmlns="http://www.w3.org/2000/svg">
<path fill-rule="evenodd" clip-rule="evenodd" d="M115.541 79.5369H86.2797L83.9238 89.8676H86.0938L86.7416 87.0256C86.7416 87.0256 87.7436 82.4525 92.0538 82.4525H97.4793V117.981C97.4793 122.095 94.667 122.265 94.2788 122.271H89.3933V124.647H112.424V122.271H107.537C107.15 122.265 104.339 122.094 104.339 117.981V82.4525H109.766C114.077 82.4525 115.078 87.0256 115.078 87.0256L115.724 89.8676H117.892L115.541 79.5369Z" fill="#00081E"/>
<path fill-rule="evenodd" clip-rule="evenodd" d="M93.1466 115.98L91.9621 114.492C91.9621 114.492 83.7287 121.379 74.7749 121.379H61.3294V102.27H69.2714C73.3847 102.27 73.5574 105.083 73.5629 105.469V108.692H75.9397L75.9386 92.934H73.5629V96.1576C73.5574 96.5425 73.3858 99.3548 69.2725 99.3548H61.3305V82.4525H72.165C76.4753 82.4525 77.0714 87.0256 77.0714 87.0256L77.7192 89.8676H79.8881L77.937 79.5369H46.3167V81.9158H51.2714C51.6575 81.9191 54.4687 82.0885 54.4687 86.203V117.567C54.4687 121.679 50.76 122.267 50.374 122.272H35.833C38.9907 116.242 39.5516 110.485 39.5516 108.494V80.3177C39.5516 75.9349 44.2116 75.7611 44.5987 75.7578H48.4977V72.8466L23.3378 72.8488V75.7589H27.2389C27.6283 75.7655 32.2872 75.936 32.2872 80.3199V107.069C32.2872 129.054 15.8908 135.591 9.35449 137.374V139.155C22.7736 137.447 30.2756 131.155 34.4527 124.649H82.2692L93.1466 115.98ZM202.647 101.914C202.647 89.7697 192.717 79.9229 180.461 79.9229C168.21 79.9229 158.276 89.7697 158.276 101.914C158.276 114.059 168.21 123.906 180.461 123.906C181.579 123.906 182.672 123.822 183.741 123.663C182.431 125.205 179.57 127.61 174.481 127.61C166.281 127.61 159.328 121.33 157.19 119.249C155.795 117.895 143.631 105.509 140.956 102.787H141.324C146.316 102.787 152.556 99.2833 152.556 91.2622C152.556 82.1105 144.77 79.5369 140.848 79.5369H119.184V81.9158H121.94C122.327 81.9191 125.139 82.0885 125.139 86.2041V117.982C125.139 122.096 122.326 122.267 121.94 122.272H117.056V124.648H140.085V122.272H135.197C134.812 122.267 132.001 122.095 132.001 117.982V102.788H132.548L151.843 121.331C151.843 121.331 159.924 129.649 173.412 129.649C183.626 129.649 188.369 124.324 190.074 121.741C197.513 118.191 202.647 110.647 202.647 101.914ZM132.001 99.996V82.4525H137.345C137.345 82.4525 145.841 82.7055 145.841 91.2622C145.841 99.1656 138.058 99.996 137.164 99.996H132.001ZM182.64 120.897C173.848 121.907 165.748 114.223 164.547 103.738C163.346 93.2551 169.498 83.9373 178.29 82.931C187.078 81.9224 195.181 89.6059 196.379 100.091C197.582 110.574 191.43 119.891 182.64 120.897Z" fill="#00081E"/>
<path d="M95.0589 145.432C94.963 144.581 94.5677 143.922 93.8728 143.455C93.1779 142.981 92.3033 142.745 91.2489 142.745C90.4941 142.745 89.8412 142.865 89.29 143.104C88.7389 143.338 88.3106 143.661 88.0051 144.075C87.7055 144.482 87.5558 144.946 87.5558 145.467C87.5558 145.905 87.6576 146.282 87.8613 146.6C88.071 146.917 88.3435 147.184 88.679 147.399C89.0205 147.609 89.3859 147.786 89.7753 147.93C90.1646 148.067 90.539 148.181 90.8985 148.271L92.6956 148.738C93.2827 148.882 93.8847 149.077 94.5018 149.322C95.1188 149.568 95.6909 149.891 96.218 150.293C96.7452 150.694 97.1705 151.191 97.494 151.784C97.8235 152.377 97.9882 153.087 97.9882 153.914C97.9882 154.956 97.7187 155.882 97.1795 156.691C96.6464 157.499 95.8706 158.137 94.8522 158.605C93.8398 159.072 92.6148 159.306 91.177 159.306C89.7992 159.306 88.6071 159.087 87.6007 158.65C86.5943 158.212 85.8066 157.592 85.2375 156.79C84.6684 155.981 84.3539 155.022 84.2939 153.914H87.0795C87.1334 154.579 87.3491 155.133 87.7265 155.576C88.1099 156.014 88.5981 156.34 89.1912 156.556C89.7902 156.766 90.4462 156.87 91.1591 156.87C91.9438 156.87 92.6417 156.748 93.2527 156.502C93.8698 156.25 94.355 155.903 94.7084 155.46C95.0619 155.01 95.2386 154.486 95.2386 153.887C95.2386 153.342 95.0828 152.896 94.7713 152.548C94.4658 152.201 94.0495 151.913 93.5223 151.686C93.0011 151.458 92.4111 151.257 91.7521 151.084L89.5776 150.49C88.1039 150.089 86.9358 149.499 86.0731 148.72C85.2165 147.942 84.7882 146.911 84.7882 145.629C84.7882 144.569 85.0757 143.643 85.6508 142.853C86.2259 142.062 87.0047 141.448 87.9871 141.011C88.9695 140.567 90.0778 140.346 91.3118 140.346C92.5578 140.346 93.6571 140.564 94.6096 141.002C95.5681 141.439 96.3229 142.041 96.874 142.808C97.4251 143.568 97.7127 144.443 97.7366 145.432H95.0589ZM105.107 159.306C104.233 159.306 103.442 159.144 102.735 158.82C102.028 158.491 101.468 158.015 101.055 157.392C100.647 156.769 100.444 156.005 100.444 155.1C100.444 154.321 100.593 153.68 100.893 153.177C101.192 152.674 101.597 152.276 102.106 151.982C102.615 151.689 103.184 151.467 103.813 151.317C104.442 151.167 105.083 151.054 105.736 150.976C106.563 150.88 107.234 150.802 107.749 150.742C108.264 150.676 108.639 150.571 108.872 150.428C109.106 150.284 109.223 150.05 109.223 149.727V149.664C109.223 148.879 109.001 148.271 108.558 147.84C108.12 147.408 107.467 147.193 106.599 147.193C105.694 147.193 104.981 147.393 104.46 147.795C103.945 148.19 103.589 148.63 103.391 149.116L100.866 148.541C101.165 147.702 101.603 147.025 102.178 146.51C102.759 145.989 103.427 145.611 104.182 145.378C104.936 145.138 105.73 145.018 106.563 145.018C107.114 145.018 107.698 145.084 108.315 145.216C108.938 145.342 109.519 145.575 110.058 145.917C110.603 146.258 111.05 146.746 111.397 147.381C111.745 148.01 111.918 148.828 111.918 149.835V159H109.295V157.113H109.187C109.013 157.46 108.752 157.802 108.405 158.137C108.058 158.473 107.611 158.751 107.066 158.973C106.521 159.195 105.868 159.306 105.107 159.306ZM105.691 157.149C106.434 157.149 107.069 157.002 107.596 156.709C108.129 156.415 108.534 156.032 108.809 155.558C109.091 155.079 109.232 154.567 109.232 154.022V152.243C109.136 152.339 108.95 152.428 108.675 152.512C108.405 152.59 108.096 152.659 107.749 152.719C107.402 152.773 107.063 152.824 106.734 152.872C106.404 152.914 106.129 152.95 105.907 152.98C105.386 153.045 104.91 153.156 104.478 153.312C104.053 153.468 103.711 153.692 103.454 153.986C103.202 154.273 103.076 154.657 103.076 155.136C103.076 155.801 103.322 156.304 103.813 156.646C104.304 156.981 104.93 157.149 105.691 157.149ZM104.002 143.527L102.196 143.473C102.196 142.478 102.462 141.684 102.996 141.091C103.535 140.498 104.2 140.202 104.99 140.202C105.356 140.202 105.676 140.265 105.952 140.39C106.227 140.51 106.485 140.651 106.725 140.813C106.97 140.969 107.213 141.109 107.452 141.235C107.698 141.355 107.971 141.415 108.27 141.415C108.618 141.415 108.899 141.283 109.115 141.02C109.337 140.756 109.447 140.429 109.447 140.04L111.218 140.157C111.218 141.157 110.948 141.945 110.409 142.52C109.87 143.089 109.208 143.377 108.423 143.383C107.998 143.383 107.644 143.323 107.363 143.203C107.087 143.077 106.841 142.936 106.626 142.781C106.41 142.619 106.188 142.475 105.961 142.349C105.733 142.224 105.461 142.161 105.143 142.161C104.808 142.161 104.532 142.292 104.316 142.556C104.107 142.814 104.002 143.137 104.002 143.527ZM121.311 159.279C120.017 159.279 118.888 158.982 117.923 158.389C116.959 157.796 116.21 156.966 115.677 155.9C115.144 154.834 114.877 153.588 114.877 152.162C114.877 150.73 115.144 149.478 115.677 148.406C116.21 147.333 116.959 146.501 117.923 145.908C118.888 145.315 120.017 145.018 121.311 145.018C122.605 145.018 123.734 145.315 124.698 145.908C125.663 146.501 126.412 147.333 126.945 148.406C127.478 149.478 127.745 150.73 127.745 152.162C127.745 153.588 127.478 154.834 126.945 155.9C126.412 156.966 125.663 157.796 124.698 158.389C123.734 158.982 122.605 159.279 121.311 159.279ZM121.32 157.023C122.158 157.023 122.853 156.801 123.404 156.358C123.956 155.915 124.363 155.325 124.627 154.588C124.896 153.851 125.031 153.039 125.031 152.153C125.031 151.272 124.896 150.464 124.627 149.727C124.363 148.984 123.956 148.388 123.404 147.939C122.853 147.489 122.158 147.265 121.32 147.265C120.475 147.265 119.774 147.489 119.217 147.939C118.666 148.388 118.256 148.984 117.986 149.727C117.722 150.464 117.591 151.272 117.591 152.153C117.591 153.039 117.722 153.851 117.986 154.588C118.256 155.325 118.666 155.915 119.217 156.358C119.774 156.801 120.475 157.023 121.32 157.023ZM137.656 159V140.597H144.215C145.647 140.597 146.833 140.858 147.774 141.379C148.714 141.9 149.418 142.613 149.885 143.518C150.353 144.416 150.586 145.429 150.586 146.555C150.586 147.687 150.35 148.705 149.876 149.61C149.409 150.508 148.702 151.221 147.756 151.748C146.815 152.27 145.632 152.53 144.206 152.53H139.696V150.176H143.955C144.859 150.176 145.593 150.02 146.156 149.709C146.719 149.391 147.133 148.96 147.396 148.415C147.66 147.87 147.792 147.25 147.792 146.555C147.792 145.86 147.66 145.243 147.396 144.704C147.133 144.165 146.717 143.742 146.147 143.437C145.584 143.131 144.841 142.978 143.919 142.978H140.432V159H137.656ZM157.519 159.306C156.644 159.306 155.854 159.144 155.147 158.82C154.44 158.491 153.88 158.015 153.466 157.392C153.059 156.769 152.855 156.005 152.855 155.1C152.855 154.321 153.005 153.68 153.305 153.177C153.604 152.674 154.008 152.276 154.518 151.982C155.027 151.689 155.596 151.467 156.225 151.317C156.854 151.167 157.495 151.054 158.148 150.976C158.975 150.88 159.646 150.802 160.161 150.742C160.676 150.676 161.05 150.571 161.284 150.428C161.518 150.284 161.634 150.05 161.634 149.727V149.664C161.634 148.879 161.413 148.271 160.969 147.84C160.532 147.408 159.879 147.193 159.011 147.193C158.106 147.193 157.393 147.393 156.872 147.795C156.357 148.19 156 148.63 155.803 149.116L153.278 148.541C153.577 147.702 154.014 147.025 154.59 146.51C155.171 145.989 155.839 145.611 156.593 145.378C157.348 145.138 158.142 145.018 158.975 145.018C159.526 145.018 160.11 145.084 160.727 145.216C161.35 145.342 161.931 145.575 162.47 145.917C163.015 146.258 163.461 146.746 163.809 147.381C164.156 148.01 164.33 148.828 164.33 149.835V159H161.706V157.113H161.598C161.425 157.46 161.164 157.802 160.817 158.137C160.469 158.473 160.023 158.751 159.478 158.973C158.933 159.195 158.28 159.306 157.519 159.306ZM158.103 157.149C158.846 157.149 159.481 157.002 160.008 156.709C160.541 156.415 160.945 156.032 161.221 155.558C161.503 155.079 161.643 154.567 161.643 154.022V152.243C161.547 152.339 161.362 152.428 161.086 152.512C160.817 152.59 160.508 152.659 160.161 152.719C159.813 152.773 159.475 152.824 159.145 152.872C158.816 152.914 158.54 152.95 158.319 152.98C157.797 153.045 157.321 153.156 156.89 153.312C156.465 153.468 156.123 153.692 155.865 153.986C155.614 154.273 155.488 154.657 155.488 155.136C155.488 155.801 155.734 156.304 156.225 156.646C156.716 156.981 157.342 157.149 158.103 157.149ZM176.652 153.276V145.198H179.348V159H176.706V156.61H176.562C176.244 157.347 175.735 157.961 175.034 158.452C174.339 158.937 173.474 159.18 172.437 159.18C171.551 159.18 170.766 158.985 170.083 158.596C169.406 158.2 168.873 157.616 168.484 156.843C168.1 156.071 167.909 155.115 167.909 153.977V145.198H170.595V153.653C170.595 154.594 170.856 155.343 171.377 155.9C171.898 156.457 172.575 156.736 173.408 156.736C173.911 156.736 174.411 156.61 174.909 156.358C175.412 156.107 175.828 155.726 176.158 155.217C176.493 154.708 176.658 154.061 176.652 153.276ZM185.644 140.597V159H182.958V140.597H185.644ZM195.073 159.279C193.779 159.279 192.649 158.982 191.685 158.389C190.721 157.796 189.972 156.966 189.439 155.9C188.905 154.834 188.639 153.588 188.639 152.162C188.639 150.73 188.905 149.478 189.439 148.406C189.972 147.333 190.721 146.501 191.685 145.908C192.649 145.315 193.779 145.018 195.073 145.018C196.367 145.018 197.496 145.315 198.46 145.908C199.425 146.501 200.174 147.333 200.707 148.406C201.24 149.478 201.506 150.73 201.506 152.162C201.506 153.588 201.24 154.834 200.707 155.9C200.174 156.966 199.425 157.796 198.46 158.389C197.496 158.982 196.367 159.279 195.073 159.279ZM195.082 157.023C195.92 157.023 196.615 156.801 197.166 156.358C197.717 155.915 198.125 155.325 198.388 154.588C198.658 153.851 198.793 153.039 198.793 152.153C198.793 151.272 198.658 150.464 198.388 149.727C198.125 148.984 197.717 148.388 197.166 147.939C196.615 147.489 195.92 147.265 195.082 147.265C194.237 147.265 193.536 147.489 192.979 147.939C192.428 148.388 192.017 148.984 191.748 149.727C191.484 150.464 191.353 151.272 191.353 152.153C191.353 153.039 191.484 153.851 191.748 154.588C192.017 155.325 192.428 155.915 192.979 156.358C193.536 156.801 194.237 157.023 195.082 157.023Z" fill="#676767"/>
</svg>
