<svg width="27" height="47" viewBox="0 0 27 47" fill="none" xmlns="http://www.w3.org/2000/svg">
<path d="M25.3165 1.1585C25.9222 1.76416 26.225 2.48125 26.225 3.30979C26.225 4.13833 25.9222 4.85462 25.3165 5.45866L7.57075 23.2044L25.3771 41.0107C25.9423 41.576 26.225 42.2826 26.225 43.1305C26.225 43.9784 25.9221 44.7052 25.3165 45.3109C24.7108 45.9165 23.9937 46.2194 23.1652 46.2194C22.3367 46.2194 21.6204 45.9165 21.0163 45.3109L0.66626 24.9002C0.423998 24.658 0.251993 24.3955 0.150242 24.1129C0.0484925 23.8302 -0.00157539 23.5274 3.82517e-05 23.2044C3.82799e-05 22.8814 0.050913 22.5786 0.152664 22.2959C0.254414 22.0133 0.425614 21.7508 0.66626 21.5086L21.0769 1.09793C21.6422 0.532653 22.3391 0.250011 23.1676 0.250011C23.9962 0.250011 24.7125 0.552841 25.3165 1.1585Z" fill="white"/>
</svg>
