<svg width="27" height="47" viewBox="0 0 27 47" fill="none" xmlns="http://www.w3.org/2000/svg">
<path d="M0.908485 45.3109C0.302828 44.7052 0 43.9881 0 43.1596C0 42.331 0.302828 41.6147 0.908485 41.0107L18.6542 23.265L0.847919 5.45865C0.28264 4.89337 0 4.18677 0 3.33885C0 2.49093 0.302828 1.76414 0.908485 1.15849C1.51414 0.552828 2.23124 0.25 3.05978 0.25C3.88832 0.25 4.60461 0.552828 5.20865 1.15849L25.5587 21.5691C25.801 21.8114 25.973 22.0738 26.0747 22.3565C26.1765 22.6391 26.2266 22.9419 26.2249 23.265C26.2249 23.588 26.1741 23.8908 26.0723 24.1734C25.9706 24.4561 25.7994 24.7185 25.5587 24.9608L5.14808 45.3714C4.5828 45.9367 3.88589 46.2193 3.05735 46.2193C2.22882 46.2193 1.51253 45.9165 0.908485 45.3109Z" fill="white"/>
</svg>
